# xmcd
#
# Track frame offsets:
#	150
#	16917
#	31670
#	49517
#	63565
#	82325
#	98860
#	115070
#	134102
#	157357
#	179672
#	195747
#	221260
#	236110
#	254867
#
# Disc length: 3577 seconds
#
# Revision: 4
# Processed by: cddbd v1.5.2PL0 Copyright (c) Steve Scherf et al.
# Submitted via: EZCDAudioConverter 7.0.0.1
#
DISCID=e30df70f
DTITLE=Faith Hill - There You'll Be
DYEAR=2001
DGENRE=Country
TTITLE0=There You'll Be
TTITLE1=This Kiss
TTITLE2=Breathe - Tin Tin Radio Remix
TTITLE3=The Way You Love Me
TTITLE4=Let Me Let Go
TTITLE5=Piece Of My Heart
TTITLE6=If My Heart Had Wings
TTITLE7=There Will Come A Day
TTITLE8=Love Will Always Win
TTITLE9=My Wild Frontier
TTITLE10=You Give Me  Love
TTITLE11=Somewhere Down The Road
TTITLE12=Over The Rainbow
TTITLE13=Breathe
TTITLE14=The Way You Love Me - Love To Infinity Remix
EXTD=
EXTT0=
EXTT1=
EXTT2=
EXTT3=
EXTT4=
EXTT5=
EXTT6=
EXTT7=
EXTT8=
EXTT9=
EXTT10=
EXTT11=
EXTT12=
EXTT13=
EXTT14=
PLAYORDER=
